<svg width="32" height="32" viewBox="0 0 32 32" fill="none" xmlns="http://www.w3.org/2000/svg">
<rect width="32" height="32" rx="8" fill="#135BEC"/>
<path d="M13.9373 25.125L11.4623 20.525L6.8623 18.05L8.6373 16.3L12.2623 16.925L14.8123 14.375L6.8873 11L8.9873 8.85L18.6123 10.55L21.7123 7.45C22.0956 7.06667 22.5706 6.875 23.1373 6.875C23.704 6.875 24.179 7.06667 24.5623 7.45C24.9456 7.83333 25.1373 8.30417 25.1373 8.8625C25.1373 9.42083 24.9456 9.89167 24.5623 10.275L21.4373 13.4L23.1373 23L21.0123 25.125L17.6123 17.2L15.0623 19.75L15.7123 23.35L13.9373 25.125Z" fill="white"/>
</svg>
